<svg width="32" height="32" viewBox="0 0 32 32" fill="none" xmlns="http://www.w3.org/2000/svg">
  <path d="M11.3693 10.0435C11.7616 9.65473 11.7644 9.02157 11.3756 8.62931C10.9868 8.23704 10.3537 8.23422 9.96142 8.623L7.56844 10.9947C6.66715 11.888 5.93051 12.618 5.40811 13.2685C4.86487 13.945 4.47162 14.6316 4.36658 15.4557C4.32052 15.8171 4.32052 16.1828 4.36658 16.5441C4.47162 17.3683 4.86487 18.0549 5.40811 18.7313C5.93052 19.3818 6.66715 20.1119 7.56845 21.0051L9.96142 23.3768C10.3537 23.7656 10.9868 23.7628 11.3756 23.3705C11.7644 22.9783 11.7616 22.3451 11.3693 21.9563L9.01868 19.6266C8.06469 18.6811 7.41029 18.0303 6.96749 17.479C6.82359 17.2998 6.71131 17.142 6.62414 16.9999H26.6654C27.2176 16.9999 27.6654 16.5522 27.6654 15.9999C27.6654 15.4476 27.2176 14.9999 26.6654 14.9999H6.62414C6.71131 14.8578 6.82359 14.7 6.96749 14.5209C7.41029 13.9695 8.06469 13.3188 9.01868 12.3733L11.3693 10.0435Z" fill="#121212"/>
</svg>
