<svg width="25" height="24" viewBox="0 0 25 24" fill="none" xmlns="http://www.w3.org/2000/svg">
  <path d="M12.9082 3.27591C12.6371 3.24136 12.3629 3.24136 12.0918 3.27591C11.4737 3.35469 10.9588 3.64963 10.4515 4.05706C9.96359 4.44886 9.41604 5.00133 8.7461 5.67731L6.96731 7.47204C6.67573 7.76624 6.67784 8.24111 6.97204 8.53269C7.26624 8.82427 7.74111 8.82216 8.03269 8.52796L9.78 6.76499C10.4891 6.0495 10.9772 5.55869 11.3907 5.22659C11.5251 5.11867 11.6434 5.03446 11.75 4.96908L11.75 20C11.75 20.4142 12.0858 20.75 12.5 20.75C12.9142 20.75 13.25 20.4142 13.25 20L13.25 4.96908C13.3566 5.03446 13.4749 5.11867 13.6093 5.22659C14.0228 5.55869 14.5109 6.0495 15.22 6.76499L16.9673 8.52796C17.2589 8.82216 17.7338 8.82428 18.028 8.53269C18.3222 8.24111 18.3243 7.76624 18.0327 7.47204L16.2539 5.6773C15.584 5.00133 15.0364 4.44886 14.5485 4.05706C14.0412 3.64963 13.5263 3.3547 12.9082 3.27591Z" fill="#121212"/>
</svg>
