<svg width="32" height="32" viewBox="0 0 32 32" fill="none" xmlns="http://www.w3.org/2000/svg">
  <path d="M22.036 8.623C21.6437 8.23422 21.0106 8.23704 20.6218 8.62931C20.233 9.02157 20.2358 9.65473 20.6281 10.0435L22.9787 12.3732C23.9327 13.3188 24.5871 13.9695 25.0299 14.5209C25.1738 14.7 25.2861 14.8578 25.3733 14.9999L5.33203 14.9999C4.77975 14.9999 4.33203 15.4476 4.33203 15.9999C4.33203 16.5522 4.77975 16.9999 5.33203 16.9999L25.3733 16.9999C25.2861 17.142 25.1738 17.2998 25.0299 17.479C24.5871 18.0303 23.9327 18.6811 22.9787 19.6266L20.6281 21.9563C20.2358 22.3451 20.233 22.9783 20.6218 23.3705C21.0106 23.7628 21.6437 23.7656 22.036 23.3768L24.429 21.0051C25.3303 20.1119 26.0669 19.3818 26.5893 18.7313C27.1325 18.0549 27.5258 17.3683 27.6308 16.5441C27.6538 16.3635 27.6654 16.1817 27.6654 15.9999C27.6654 15.8182 27.6538 15.6364 27.6308 15.4557C27.5258 14.6316 27.1325 13.945 26.5893 13.2685C26.0669 12.618 25.3302 11.888 24.4289 10.9947L22.036 8.623Z" fill="#121212"/>
</svg>
