<svg width="40" height="40" viewBox="0 0 40 40" fill="none" xmlns="http://www.w3.org/2000/svg">
  <path d="M21.2493 33.3333C21.2493 34.0237 20.6897 34.5833 19.9993 34.5833C19.309 34.5833 18.7493 34.0237 18.7493 33.3333L18.7493 8.28171C18.5717 8.39073 18.3745 8.53099 18.1505 8.71091C17.4613 9.26438 16.6479 10.0824 15.466 11.2749L12.5538 14.2132C12.0679 14.7035 11.2764 14.707 10.7861 14.2211C10.2958 13.7351 10.2922 12.9436 10.7782 12.4533L13.7429 9.46213C14.8594 8.33549 15.772 7.41472 16.5851 6.76166C17.4307 6.08256 18.2889 5.59107 19.3191 5.45984C19.7708 5.4022 20.2279 5.4022 20.6796 5.45984C21.7098 5.59107 22.568 6.08256 23.4136 6.76166C24.2267 7.41472 25.1393 8.33549 26.2558 9.46213L29.2205 12.4533C29.7065 12.9436 29.7029 13.7351 29.2126 14.2211C28.7223 14.707 27.9308 14.7035 27.4449 14.2132L24.5327 11.2749C23.3508 10.0824 22.5374 9.26438 21.8482 8.71091C21.6242 8.53099 21.427 8.39073 21.2493 8.28171L21.2493 33.3333Z" fill="#121212"/>
</svg>
