<svg width="40" height="40" viewBox="0 0 40 40" fill="none" xmlns="http://www.w3.org/2000/svg">
  <path d="M21.2493 6.66675C21.2493 5.97639 20.6897 5.41675 19.9993 5.41675C19.309 5.41675 18.7493 5.97639 18.7493 6.66675L18.7493 31.7183C18.5717 31.6093 18.3745 31.469 18.1505 31.2891C17.4613 30.7356 16.6479 29.9176 15.466 28.7251L12.5538 25.7868C12.0679 25.2965 11.2764 25.293 10.7861 25.7789C10.2958 26.2649 10.2922 27.0564 10.7782 27.5467L13.7429 30.5379C14.8594 31.6645 15.772 32.5853 16.5851 33.2383C17.4307 33.9174 18.2889 34.4089 19.3191 34.5402C19.7708 34.5978 20.2279 34.5978 20.6796 34.5402C21.7098 34.4089 22.568 33.9174 23.4136 33.2383C24.2267 32.5853 25.1393 31.6645 26.2558 30.5379L29.2205 27.5467C29.7065 27.0564 29.7029 26.2649 29.2126 25.7789C28.7223 25.293 27.9308 25.2965 27.4449 25.7868L24.5327 28.7251C23.3508 29.9176 22.5374 30.7356 21.8482 31.2891C21.6242 31.469 21.427 31.6093 21.2493 31.7183L21.2493 6.66675Z" fill="#121212"/>
</svg>
