<svg width="40" height="40" viewBox="0 0 40 40" fill="none" xmlns="http://www.w3.org/2000/svg">
  <path fill-rule="evenodd" clip-rule="evenodd" d="M26.5887 5.51517C25.3054 5.41674 23.7224 5.41674 21.7086 5.41675H18.8983C16.8845 5.41674 15.3016 5.41674 14.0182 5.51517C12.7083 5.61563 11.6171 5.82355 10.6028 6.28851C8.92709 7.0567 7.50848 8.2919 6.51707 9.84602C6.25823 10.2518 6.04385 10.6796 5.86095 11.141C5.23871 12.711 4.95104 14.7831 4.53245 17.7982L4.49705 18.0532C4.14054 20.62 3.86184 22.6266 3.77719 24.2429C3.69125 25.8839 3.79522 27.2514 4.28888 28.5069C5.09576 30.559 6.58556 32.27 8.50709 33.3515C9.68274 34.0132 11.023 34.3043 12.6602 34.4449C14.2728 34.5834 16.2986 34.5834 18.89 34.5834H21.7169C24.3083 34.5834 26.3342 34.5834 27.9467 34.4449C29.584 34.3043 30.9242 34.0132 32.0998 33.3515C34.0214 32.27 35.5112 30.559 36.318 28.5069C36.8117 27.2514 36.9157 25.8839 36.8297 24.2429C36.7451 22.6266 36.4664 20.6199 36.1099 18.053L36.0692 17.7604C35.6258 14.5655 35.3288 12.4259 34.6053 10.807C34.4548 10.4701 34.2847 10.1515 34.0899 9.84602C33.0984 8.2919 31.6798 7.0567 30.0041 6.28851C28.9899 5.82355 27.8986 5.61563 26.5887 5.51517ZM11.6446 8.56109C12.284 8.268 13.0483 8.09689 14.2094 8.00784C15.386 7.9176 16.8733 7.91675 18.95 7.91675H21.6569C23.7336 7.91675 25.2209 7.9176 26.3975 8.00784C27.5586 8.09689 28.3229 8.268 28.9623 8.56109C30.1659 9.11287 31.1901 9.99062 31.9194 11.0939L31.0025 12.0109C28.1997 14.8136 26.1847 16.8249 24.4466 18.151C22.7375 19.455 21.4439 19.9781 20.1012 19.9781C18.7585 19.9781 17.465 19.455 15.7558 18.151C14.0178 16.8249 12.0028 14.8136 9.2 12.0109L8.53182 11.3427C8.56205 11.2909 8.593 11.2403 8.62472 11.1906C9.35751 10.0419 10.406 9.12889 11.6446 8.56109ZM32.8855 13.6633C33.1262 14.7759 33.335 16.2469 33.6254 18.3378C33.9919 20.9766 34.2548 22.8772 34.3332 24.3736C34.4109 25.8578 34.297 26.815 33.9914 27.5921C33.3951 29.1088 32.2939 30.3735 30.8736 31.1729C30.146 31.5824 29.2135 31.8269 27.7328 31.9541C26.2397 32.0823 24.3211 32.0834 21.657 32.0834H18.95C16.2858 32.0834 14.3672 32.0823 12.8742 31.9541C11.3934 31.8269 10.4609 31.5824 9.73329 31.1729C8.31303 30.3735 7.21187 29.1088 6.61549 27.5921C6.30994 26.815 6.19604 25.8578 6.27377 24.3736C6.35214 22.8772 6.61502 20.9766 6.98152 18.3378C7.24324 16.4534 7.4382 15.0713 7.65189 13.9983C10.3 16.6462 12.3876 18.7256 14.2394 20.1385C16.1709 21.6122 17.9921 22.4781 20.1012 22.4781C22.2103 22.4781 24.0315 21.6122 25.9631 20.1385C27.8502 18.6987 29.9822 16.5667 32.7026 13.8463L32.8855 13.6633Z" fill="#121212"/>
</svg>
