<svg width="25" height="24" viewBox="0 0 25 24" fill="none" xmlns="http://www.w3.org/2000/svg">
  <path fill-rule="evenodd" clip-rule="evenodd" d="M16.4532 3.30905C15.6832 3.24999 14.7335 3.25 13.5252 3.25H11.839C10.6307 3.25 9.68094 3.24999 8.91092 3.30905C8.12498 3.36933 7.47024 3.49408 6.86169 3.77306C5.85626 4.23397 5.00509 4.97509 4.41024 5.90756C4.25494 6.15101 4.12631 6.40771 4.01657 6.68458C3.64323 7.62653 3.47063 8.86979 3.21947 10.6789L3.19823 10.8319C2.98432 12.372 2.8171 13.5759 2.76632 14.5457C2.71475 15.5303 2.77713 16.3508 3.07333 17.1041C3.55745 18.3353 4.45134 19.362 5.60425 20.0109C6.30964 20.4079 7.11378 20.5825 8.09613 20.6669C9.06366 20.75 10.2792 20.75 11.834 20.75H13.5301C15.085 20.75 16.3005 20.75 17.268 20.6669C18.2504 20.5825 19.0545 20.4079 19.7599 20.0109C20.9128 19.362 21.8067 18.3353 22.2908 17.1041C22.587 16.3508 22.6494 15.5303 22.5978 14.5457C22.5471 13.5759 22.3798 12.3719 22.1659 10.8318L22.1415 10.6562C21.8755 8.73923 21.6973 7.45549 21.2632 6.48414C21.1729 6.282 21.0708 6.09084 20.9539 5.90756C20.3591 4.97509 19.5079 4.23397 18.5025 3.77306C17.8939 3.49408 17.2392 3.36933 16.4532 3.30905ZM7.48678 5.13661C7.87039 4.96075 8.329 4.85809 9.02563 4.80466C9.73161 4.75051 10.624 4.75 11.87 4.75H13.4942C14.7402 4.75 15.6325 4.75051 16.3385 4.80466C17.0352 4.85809 17.4938 4.96075 17.8774 5.13661C18.5996 5.46767 19.2141 5.99432 19.6517 6.65629L19.1015 7.20647C17.4198 8.88813 16.2108 10.0949 15.168 10.8905C14.1425 11.673 13.3664 11.9868 12.5607 11.9868C11.7551 11.9868 10.979 11.673 9.95349 10.8905C8.91068 10.0949 7.70166 8.88813 6.02 7.20647L5.61909 6.80556C5.63723 6.77452 5.6558 6.74412 5.67483 6.71429C6.11451 6.02507 6.74363 5.47729 7.48678 5.13661ZM20.2313 8.19795C20.3757 8.86551 20.501 9.74811 20.6752 11.0026C20.8951 12.5859 21.0529 13.7262 21.0999 14.6241C21.1465 15.5146 21.0782 16.089 20.8949 16.5552C20.537 17.4652 19.8763 18.2241 19.0242 18.7037C18.5876 18.9494 18.0281 19.0961 17.1397 19.1724C16.2438 19.2494 15.0927 19.25 13.4942 19.25H11.87C10.2715 19.25 9.12032 19.2494 8.2245 19.1724C7.33606 19.0961 6.77656 18.9494 6.33997 18.7037C5.48782 18.2241 4.82712 17.4652 4.46929 16.5552C4.28596 16.089 4.21763 15.5146 4.26426 14.6241C4.31129 13.7262 4.46901 12.5859 4.68891 11.0026C4.84594 9.872 4.96292 9.04274 5.09113 8.39892C6.67998 9.98769 7.93254 11.2353 9.04362 12.0831C10.2026 12.9673 11.2953 13.4868 12.5607 13.4868C13.8262 13.4868 14.9189 12.9673 16.0779 12.0831C17.2101 11.2192 18.4893 9.93999 20.1216 8.30771L20.2313 8.19795Z" fill="#121212"/>
</svg>
