<svg width="32" height="32" viewBox="0 0 32 32" fill="none" xmlns="http://www.w3.org/2000/svg">
  <path d="M26.0398 7.37361C26.4303 6.98309 26.4303 6.34992 26.0398 5.9594C25.6493 5.56887 25.0161 5.56887 24.6256 5.9594L15.9994 14.5856L7.37312 5.9594C6.9826 5.56888 6.34943 5.56888 5.95891 5.9594C5.56838 6.34993 5.56838 6.98309 5.95891 7.37361L14.5852 15.9999L5.95894 24.6261C5.56842 25.0166 5.56842 25.6498 5.95894 26.0403C6.34947 26.4308 6.98263 26.4308 7.37316 26.0403L15.9994 17.4141L24.6256 26.0403C25.0161 26.4308 25.6493 26.4308 26.0398 26.0403C26.4303 25.6498 26.4303 25.0166 26.0398 24.6261L17.4136 15.9999L26.0398 7.37361Z" fill="#121212"/>
</svg>
