<svg width="25" height="24" viewBox="0 0 25 24" fill="none" xmlns="http://www.w3.org/2000/svg">
  <path d="M4.96964 18.4697C4.67675 18.7626 4.67675 19.2374 4.96964 19.5303C5.26254 19.8232 5.73741 19.8232 6.0303 19.5303L12.5 13.0606L18.9697 19.5303C19.2626 19.8232 19.7374 19.8232 20.0303 19.5303C20.3232 19.2374 20.3232 18.7626 20.0303 18.4697L13.5606 12L20.0303 5.53033C20.3232 5.23744 20.3232 4.76256 20.0303 4.46967C19.7374 4.17678 19.2625 4.17678 18.9696 4.46967L12.5 10.9393L6.03033 4.46967C5.73744 4.17677 5.26256 4.17677 4.96967 4.46967C4.67678 4.76256 4.67678 5.23743 4.96967 5.53033L11.4393 12L4.96964 18.4697Z" fill="#121212"/>
</svg>
