<svg width="32" height="32" viewBox="0 0 32 33" fill="none" xmlns="http://www.w3.org/2000/svg">
  <path fill-rule="evenodd" clip-rule="evenodd" d="M16.0006 1.8335C12.5028 1.8335 9.66725 4.66903 9.66725 8.16683V8.74783C9.15972 8.84801 8.6906 8.99104 8.24007 9.19757C6.89949 9.81213 5.7646 10.8003 4.97147 12.0436C4.49141 12.7961 4.20656 13.6379 3.98279 14.6648C3.76356 15.6709 3.58935 16.9252 3.36773 18.521L3.35545 18.6093C3.07024 20.6628 2.84729 22.268 2.77957 23.5611C2.71081 24.8739 2.79399 25.9679 3.18892 26.9723C3.83442 28.6139 5.02626 29.9828 6.56348 30.848C7.504 31.3773 8.57618 31.6102 9.88599 31.7227C11.176 31.8335 12.7967 31.8335 14.8698 31.8335H17.1313C19.2045 31.8335 20.8251 31.8335 22.1152 31.7227C23.425 31.6102 24.4972 31.3773 25.4377 30.848C26.9749 29.9828 28.1668 28.6139 28.8122 26.9723C29.2072 25.9679 29.2904 24.8739 29.2216 23.5611C29.1539 22.268 28.9309 20.6627 28.6457 18.6092L28.6334 18.5209C28.4118 16.9252 28.2376 15.6709 28.0184 14.6648C27.7946 13.6379 27.5098 12.7961 27.0297 12.0436C26.2366 10.8003 25.1017 9.81213 23.7611 9.19757C23.3106 8.99104 22.8414 8.84801 22.3339 8.74783V8.16683C22.3339 4.66903 19.4984 1.8335 16.0006 1.8335ZM10.6673 15.8335C10.115 15.8335 9.66725 15.3858 9.66725 14.8335V10.801C9.45008 10.8612 9.25539 10.9323 9.07352 11.0156C8.08265 11.4699 7.24382 12.2003 6.65759 13.1192C6.35498 13.5936 6.13528 14.1804 5.93694 15.0906C5.73593 16.013 5.57157 17.1915 5.34303 18.837C5.04983 20.9481 4.83953 22.4685 4.77683 23.6657C4.71465 24.853 4.80576 25.6188 5.0502 26.2405C5.52731 27.4538 6.40824 28.4656 7.54445 29.1051C8.12656 29.4327 8.87256 29.6283 10.0571 29.73C11.2516 29.8326 12.7865 29.8335 14.9178 29.8335H17.0834C19.2147 29.8335 20.7496 29.8326 21.944 29.73C23.1286 29.6283 23.8746 29.4327 24.4567 29.1051C25.5929 28.4656 26.4739 27.4538 26.951 26.2405C27.1954 25.6188 27.2865 24.853 27.2243 23.6657C27.1616 22.4685 26.9513 20.9481 26.6581 18.837C26.4296 17.1915 26.2652 16.013 26.0642 15.0906C25.8659 14.1804 25.6462 13.5936 25.3436 13.1192C24.7573 12.2003 23.9185 11.4699 22.9277 11.0156C22.7458 10.9323 22.5511 10.8612 22.3339 10.801V14.8335C22.3339 15.3858 21.8862 15.8335 21.3339 15.8335C20.7816 15.8335 20.3339 15.3858 20.3339 14.8335V10.5401C19.4888 10.5008 18.4457 10.5002 17.0834 10.5002H14.9178C13.5555 10.5002 12.5124 10.5008 11.6673 10.5401V14.8335C11.6673 15.3858 11.2195 15.8335 10.6673 15.8335ZM17.1438 8.50016C18.3969 8.50015 19.4434 8.50014 20.3339 8.53837V8.16683C20.3339 5.7736 18.3938 3.8335 16.0006 3.8335C13.6073 3.8335 11.6673 5.7736 11.6673 8.16683V8.53837C12.5578 8.50014 13.6043 8.50015 14.8574 8.50016H17.1438Z" fill="#121212"/>
</svg>
