<svg width="24" height="25" viewBox="0 0 24 25" fill="none" xmlns="http://www.w3.org/2000/svg">
  <path d="M20.5762 7.98016C20.8414 7.66195 20.7984 7.18903 20.4802 6.92385C20.1619 6.65868 19.689 6.70167 19.4239 7.01988L14.0332 13.4887C12.9503 14.7881 12.1886 15.6994 11.5279 16.296C10.8826 16.8787 10.4373 17.0639 10 17.0639C9.56276 17.0639 9.11742 16.8787 8.47213 16.296C7.81143 15.6994 7.04969 14.7881 5.96686 13.4887L4.57618 11.8199C4.31101 11.5017 3.83809 11.4587 3.51988 11.7239C3.20167 11.989 3.15868 12.4619 3.42385 12.7802L4.85312 14.4953C5.88839 15.7376 6.71748 16.7326 7.46684 17.4092C8.24089 18.1082 9.03216 18.5639 10 18.5639C10.9679 18.5639 11.7591 18.1082 12.5332 17.4092C13.2826 16.7326 14.1116 15.7377 15.1469 14.4953L20.5762 7.98016Z" fill="#121212"/>
</svg>
