<svg width="38" height="38" viewBox="0 0 38 38" fill="none" xmlns="http://www.w3.org/2000/svg">
  <path d="M36.5149 18.1891C36.5181 18.1891 36.5205 18.1891 36.5237 18.1891C36.7469 18.1891 36.9597 18.0955 37.1109 17.9315C37.2645 17.7651 37.3405 17.5419 37.3205 17.3163C36.5173 8.48191 29.5229 1.48511 20.6877 0.680312C20.4637 0.662712 20.2381 0.735513 20.0717 0.889913C19.9053 1.04351 19.8125 1.26031 19.8149 1.48671C19.9541 13.2275 21.5029 18.0251 36.5149 18.1891ZM36.5149 19.8115C21.5029 19.9755 19.9549 24.7731 19.8157 36.5139C19.8133 36.7403 19.9061 36.9571 20.0725 37.1107C20.2213 37.2475 20.4157 37.3235 20.6157 37.3235C20.6397 37.3235 20.6645 37.3227 20.6885 37.3203C29.5237 36.5155 36.5181 29.5195 37.3205 20.6843C37.3405 20.4587 37.2653 20.2355 37.1109 20.0691C36.9565 19.9027 36.7413 19.8203 36.5149 19.8115ZM17.2581 0.684313C8.45093 1.51231 1.47893 8.50751 0.679727 17.3179C0.659727 17.5435 0.734927 17.7667 0.889327 17.9331C1.04053 18.0971 1.25413 18.1899 1.47653 18.1899C1.47973 18.1899 1.48293 18.1899 1.48613 18.1899C16.4485 18.0179 17.9933 13.2227 18.1341 1.48991C18.1365 1.26351 18.0429 1.04591 17.8765 0.892313C17.7085 0.738713 17.4837 0.663513 17.2581 0.684313ZM1.48533 19.8107C1.23653 19.7827 1.04133 19.9011 0.888527 20.0675C0.734927 20.2339 0.658927 20.4571 0.678927 20.6827C1.47813 29.4931 8.45093 36.4883 17.2581 37.3163C17.2829 37.3187 17.3085 37.3195 17.3333 37.3195C17.5333 37.3195 17.7269 37.2443 17.8757 37.1075C18.0421 36.9539 18.1357 36.7363 18.1333 36.5099C17.9925 24.7779 16.4485 19.9827 1.48533 19.8107Z" fill="#2196F3"/>
</svg>
